<svg width="41" height="41" viewBox="0 0 41 41" fill="none" xmlns="http://www.w3.org/2000/svg">
<path d="M37.5834 10.2414C37.5834 9.30186 36.8215 8.54166 35.8836 8.54166H22.1998C21.749 8.54166 21.3167 8.72074 20.9979 9.03951C20.6791 9.35829 20.5 9.79064 20.5 10.2414C20.5 10.6923 20.6791 11.1246 20.9979 11.4434C21.3167 11.7622 21.749 11.9412 22.1998 11.9412H35.8836C36.3344 11.9412 36.7667 11.7622 37.0855 11.4434C37.4043 11.1246 37.5834 10.6923 37.5834 10.2414ZM37.5834 20.5C37.5834 19.5604 36.8215 18.8002 35.8836 18.8002H5.1165C4.66569 18.8002 4.23334 18.9793 3.91457 19.2981C3.59579 19.6168 3.41671 20.0492 3.41671 20.5C3.41671 20.9508 3.59579 21.3832 3.91457 21.7019C4.23334 22.0207 4.66569 22.1998 5.1165 22.1998H35.8836C36.3344 22.1998 36.7667 22.0207 37.0855 21.7019C37.4043 21.3832 37.5834 20.9508 37.5834 20.5ZM35.8836 29.0587C36.3344 29.0587 36.7667 29.2378 37.0855 29.5566C37.4043 29.8754 37.5834 30.3077 37.5834 30.7585C37.5834 31.2093 37.4043 31.6417 37.0855 31.9605C36.7667 32.2792 36.3344 32.4583 35.8836 32.4583H15.3665C14.9157 32.4583 14.4833 32.2792 14.1646 31.9605C13.8458 31.6417 13.6667 31.2093 13.6667 30.7585C13.6667 30.3077 13.8458 29.8754 14.1646 29.5566C14.4833 29.2378 14.9157 29.0587 15.3665 29.0587H35.8836Z" fill="black"/>
</svg>
