<svg width="32" height="32" viewBox="0 0 32 32" fill="none" xmlns="http://www.w3.org/2000/svg">
<path d="M12.6666 18.3334C12.6666 19.6267 13.6666 20.6667 14.8933 20.6667H17.3999C18.4666 20.6667 19.3333 19.7601 19.3333 18.6267C19.3333 17.4134 18.8 16.9734 18.0133 16.6934L14 15.2934C13.2133 15.0134 12.68 14.5867 12.68 13.3601C12.68 12.2401 13.5466 11.3201 14.6133 11.3201H17.12C18.3466 11.3201 19.3466 12.3601 19.3466 13.6534" stroke="#A1C74E" stroke-width="1.5" stroke-linecap="round" stroke-linejoin="round"/>
<path d="M16 10V22" stroke="#A1C74E" stroke-width="1.5" stroke-linecap="round" stroke-linejoin="round"/>
<path d="M29.3333 16.0001C29.3333 23.3601 23.36 29.3334 16 29.3334C8.63996 29.3334 2.66663 23.3601 2.66663 16.0001C2.66663 8.64008 8.63996 2.66675 16 2.66675" stroke="#A1C74E" stroke-width="1.5" stroke-linecap="round" stroke-linejoin="round"/>
<path d="M22.6666 4V9.33333H28" stroke="#4488C9" stroke-width="1.5" stroke-linecap="round" stroke-linejoin="round"/>
<path d="M29.3333 2.66675L22.6666 9.33341" stroke="#4488C9" stroke-width="1.5" stroke-linecap="round" stroke-linejoin="round"/>
</svg>
